# xmcd CD database file
#
# Track frame offsets:
#	150
#	24661
#	46796
#	67035
#	91339
#	117273
#	145246
#	166972
#	189612
#	207818
#
# Disc length: 3061 seconds
#
# Revision: 2
# Processed by: cddbd v1.5.1PL0 Copyright (c) Steve Scherf et al.
# Submitted via: CDex 1.50beta8
#
DISCID=880bf30a
DTITLE=深津純子 - Swing Time
DYEAR=2005
DGENRE=Jazz
TTITLE0=Going Home
TTITLE1=Ballad for You
TTITLE2=Swing Time
TTITLE3=My Cherie Amour(Henry Cosby/Sylvia Moy/Stevie Wonder)
TTITLE4=Conversation
TTITLE5=Gab and Mob
TTITLE6=Air Show
TTITLE7=Solar(Miles Davis)
TTITLE8=Dancing in the Moonlight
TTITLE9=Caravan(Duke Ellington/JuanTizol)
EXTD=YEAR: 2005
EXTT0=
EXTT1=
EXTT2=
EXTT3=
EXTT4=
EXTT5=
EXTT6=
EXTT7=
EXTT8=
EXTT9=
PLAYORDER=
